{
    "accessors" : [
        {
            "bufferView" : 0, 
            "componentType" : 5123, 
            "count" : 432, 
            "max" : [
                431
            ], 
            "min" : [
                0
            ], 
            "type" : "SCALAR"
        }, 
        {
            "bufferView" : 1, 
            "componentType" : 5126, 
            "count" : 432, 
            "max" : [
                0.24376295506954193, 
                1.6307700872421265, 
                0.1327069252729416
            ], 
            "min" : [
                -0.24376295506954193, 
                -0.014469895511865616, 
                -0.06828576326370239
            ], 
            "type" : "VEC3"
        }, 
        {
            "bufferView" : 2, 
            "componentType" : 5126, 
            "count" : 432, 
            "max" : [
                0.9995995163917542, 
                0.9999889135360718, 
                0.9999388456344604
            ], 
            "min" : [
                -0.9995995163917542, 
                -1.0, 
                -0.9988174438476562
            ], 
            "type" : "VEC3"
        }
    ], 
    "asset" : {
        "copyright" : "Supermedium", 
        "generator" : "Khronos Blender glTF 2.0 exporter", 
        "version" : "2.0"
    }, 
    "bufferViews" : [
        {
            "buffer" : 0, 
            "byteLength" : 864, 
            "byteOffset" : 0, 
            "target" : 34963
        }, 
        {
            "buffer" : 0, 
            "byteLength" : 5184, 
            "byteOffset" : 864, 
            "target" : 34962
        }, 
        {
            "buffer" : 0, 
            "byteLength" : 5184, 
            "byteOffset" : 6048, 
            "target" : 34962
        }
    ], 
    "buffers" : [
        {
            "byteLength" : 11232, 
            "uri" : "data:application/octet-stream;base64,"
        }
    ], 
    "meshes" : [
        {
            "name" : "Plane", 
            "primitives" : [
                {
                    "attributes" : {
                        "NORMAL" : 2, 
                        "POSITION" : 1
                    }, 
                    "indices" : 0
                }
            ]
        }
    ], 
    "nodes" : [
        {
            "mesh" : 0, 
            "name" : "Plane"
        }
    ], 
    "scene" : 0, 
    "scenes" : [
        {
            "name" : "Scene", 
            "nodes" : [
                0
            ]
        }
    ]
}
